DataType=double
version=3
OpenSimVersion=4.5
endheader
time	AddMag	AddLong	GlutMaxMed	GlutMed	Iliopsoas	Sartorius	SemiMemb	SemiTend	BicFemLong	RecFem	TenFascLat	Gracilis	BicFemShort	VastMed	VastLat	VastInt	GasMed	GasLat	TibAnt	TibPost	ExtHalLong	FlexHalLong	PeroneusLong	Sol	ExtDigLong	GlutMaxLat	FlexDigLong	RecFem2
0	0.1205156420943899	0.2422532911021038	0	0.2595162511946764	0.4611974131874459	0.01496889001370722	0.1096092943343044	0.1092733145061484	0.420402980217476	0.1273911768977996	0.02103562141203422	0.08406581576879278	0.3181280619459312	0.2379771142780082	0.1794745878753121	0.2697665623897637	0.01705532764772218	0.3913297943949331	0.05979586319154577	0	0.08269567934405042	0	0	0.3122200856418537	0.0966500707591454	0.04385235396400694	0.3078881412033048	0.1311842510657864
0.001	0.1240201575643741	0.2525036874272493	0	0.2673878524748777	0.4687755129253174	0.01972085585526732	0.1162955232145276	0.1117077654291806	0.4275897158290697	0.1307507123507564	0.02200670892933627	0.08668506102796464	0.3268352679006404	0.2432070270528008	0.1838843968859135	0.2779048623156308	0.02071887119225796	0.3976170884646574	0.06037731050853141	0	0.08367206795714113	0	0	0.3166437053447314	0.09900457834107459	0.04543759691554713	0.316200367849747	0.1362548608564666
0.002	0.1275183016179099	0.2626923207933349	0	0.275214953419879	0.476314495053232	0.02447391168910343	0.1229579881534094	0.1141309793597126	0.4347266276798828	0.1341208791016619	0.02297254427073595	0.08930039808722164	0.3355084811858004	0.2484038914746892	0.1882755443260824	0.2859896368825303	0.02435676535584745	0.4038568040297508	0.06096340298962893	0	0.0846509705601501	0	0	0.3210206757571941	0.1013513309391603	0.04701658209645931	0.3244590818313235	0.1413165020266247
0.003	0.1310095106120353	0.2728171620008329	0	0.2829960222367649	0.4838128167256933	0.02922761894107622	0.1295955186224581	0.1165424462675448	0.4418122013830189	0.1375011227703083	0.02393299565498604	0.09191143960386965	0.3441460488751853	0.253566646722088	0.1926471654696247	0.2940192476492643	0.02796822868859412	0.4100473562446066	0.06155428989260515	0	0.08563242465790287	0	0	0.3253498524481308	0.1036900292761528	0.04858900792318382	0.3326626122654386	0.1463684103503761
0.004	0.1344932244961975	0.2828762044349459	0	0.290729543723477	0.4912689483905046	0.03398154668173333	0.1362069541247425	0.1189416591531673	0.4488449402923514	0.1408908837441848	0.02488793485583597	0.09451780131186266	0.3527463303378428	0.258694244188114	0.1969984019158234	0.3019920759458957	0.03155248809190601	0.4161871717185834	0.062150124475765	0	0.08661647156532747	0	0	0.3296301043721576	0.1060203803301425	0.05015457507597376	0.3408093080937554	0.1514098278907918
0.005	0.1379688870608096	0.2928674650376455	0	0.2984140200014961	0.4986813745206624	0.03873527187097904	0.1427911447226281	0.1213281142665652	0.4558233662657301	0.1442895973355413	0.02583723729720038	0.09711910219858223	0.3613076979934168	0.2637856480125503	0.201328401982672	0.3099065236821061	0.03510877918094521	0.4222746892458321	0.06275106400420634	0	0.08760315644612382	0	0	0.3338603144244615	0.1083420975195509	0.05171298663765445	0.3488975389094394	0.1564400033525275
0.006	0.1414359461827755	0.3027889852667947	0	0.3060479712389644	0.5060485943389046	0.04348837959589814	0.1493469515584452	0.1237013113241305	0.4627460204187254	0.1476966939400458	0.02678078214630577	0.09971496467872784	0.3698285380599295	0.2688398356073743	0.2056363210960628	0.3177610141444114	0.03863634664194516	0.4283083605314126	0.06335726975303513	0.01950896048192512	0.08859252834823747	0	0	0.3380393799895071	0.1106549008838364	0.05326394823113149	0.3569256957734152	0.161458192429417
0.007	0.1448938540676658	0.3126388320412669	0	0.3136299363634162	0.5133691225340253	0.04824046330134774	0.1558732473674673	0.1260607537234323	0.4696114638679697	0.1511115991968787	0.02771845240468029	0.1023050147650512	0.3783072512931378	0.2738557981752342	0.2099213221744418	0.3255539927812875	0.04213444458397445	0.4342866509130395	0.06396890700742333	0.04320873599702921	0.089584640235974	0	0	0.3421662134830245	0.1129585172596183	0.05480716815550022	0.364892192018663	0.1664636581465793
0.008	0.148342067488228	0.322415098670982	0	0.3211584737632959	0.5206414899680796	0.05299112501293603	0.1623689169825852	0.1284059487555989	0.4764182784631577	0.1545337341501032	0.0286501349968598	0.1048888822356712	0.3867422537165879	0.2788325412202506	0.214182576008445	0.3332839279752619	0.04560233688475164	0.4402080400778112	0.06458614505939657	0.066730315956655	0.09057954901859362	0	0	0.3462397428867095	0.1152526804519259	0.05634235752061188	0.3727954640415911	0.1714556711965907
0.008999999999999999	0.1517800480189254	0.3321159057708	0	0.3286321619774519	0.5278642443736188	0.05773997555201809	0.1688328578300818	0.1307364078150679	0.4831650675067937	0.1579625154111574	0.02957572085669059	0.1074662007977162	0.3951319773415196	0.2837690850505368	0.2184192616350506	0.3409493118010478	0.04903929753014564	0.4460710227732854	0.06520915720124258	0.09006888119914751	0.09157731557522901	0	0	0.3502589122750762	0.1175371314002879	0.05786923037995633	0.3806339720795397	0.1764335102692862
